PathFileType	4	(X/Y/Z)	C:/Users/beibeiliu/ov580/test_trc/User3\sequence.12_training_dense_right.trc
DataRate	CameraRate	NumFrames	NumMarkers	Units	OrigDataRate	OrigDataStartFrame	OrigNumFrames
120	120	8	19	mm	120	1	75
Frame#	Time	ThumbCMC			ThumbMCP			ThumbIP			ThumbTip			IndexMCP			IndexPIP			IndexTip			MiddleMCP			MiddlePIP			MiddleTip			RingMCP			RingPIP			RingTip			PinkyMCP			PinkyPIP			PinkyTip			BackHand1			BackHand2			BackHand3	
		X0	Y0	Z0	X1	Y1	Z1	X2	Y2	Z2	X3	Y3	Z3	X4	Y4	Z4	X5	Y5	Z5	X6	Y6	Z6	X7	Y7	Z7	X8	Y8	Z8	X9	Y9	Z9	X10	Y10	Z10	X11	Y11	Z11	X12	Y12	Z12	X13	Y13	Z13	X14	Y14	Z14	X15	Y15	Z15	X16	Y16	Z16	X17	Y17	Z17	X18	Y18	Z18	
0	0	152.623	46.7055	26.1265	126.275	39.1478	6.05704	109.812	30.8682	-18.0098	100.343	22.1579	-36.5532	162.667	59.4463	-50.9405	152.533	54.7968	-79.9471	142.576	49.6752	-99.7322	192.777	57.7042	-57.1597	186.682	54.2335	-86.0728	185.357	40.959	-116.841	209.404	49.9235	-49.5301	211.753	48.2229	-76.9434	214.769	38.0355	-104.179	227.787	36.5878	-33.755	238.774	32.9781	-54.6966	247.781	25.6073	-73.7926	210.698	57.8362	0.0769245	212.639	61.9167	31.003	180.094	67.0938	16.0455	
1	0.00833333	152.2	46.318	20.4315	132.591	37.5323	5.68402	113.545	29.8017	-20.5546	100.072	20.627	-34.8366	165.111	57.9851	-51.7723	153.199	55.5191	-80.2399	148.429	46.2448	-104.438	191.655	57.3425	-56.8809	188.597	52.2962	-90.673	187.735	39.485	-119.411	209.832	50.6125	-52.2538	218.685	46.8742	-74.3682	216.241	37.3439	-104.22	229.096	35.6933	-33.9248	240.963	32.421	-56.681	245.179	24.9026	-78.733	212.439	56.8311	-0.394974	214.577	60.2575	29.9943	181.629	67.5346	12.083	
2	0.0166667	152.255	46.139	25.0523	133.355	36.5879	2.49073	113.074	29.1063	-20.1499	103.985	20.0793	-37.4778	166.414	57.48	-52.9983	154.132	55.5388	-77.2199	150.563	46.756	-102.358	192.67	56.8121	-62.7175	189.291	51.7116	-90.9128	188.878	37.2781	-121.082	213.581	49.3342	-51.3866	215.66	47.2968	-75.1745	217.712	35.7985	-103.318	230.436	36.869	-35.6701	240.938	31.4586	-54.8764	246.145	25.6333	-75.687	214.292	56.5489	-2.13761	218.581	60.1776	26.5929	184.579	67.1701	12.8274	
3	0.025	150.613	45.9892	21.5411	130.649	36.7748	4.80282	113.335	28.4175	-22.3146	101.357	18.5412	-38.5987	164.231	57.239	-51.4574	153.291	53.4581	-81.9298	151.142	45.197	-104.672	196.279	55.6012	-61.0757	192.861	49.7368	-92.3801	190.903	35.7094	-119.425	211.685	50.2099	-53.4386	216.491	46.1542	-79.8017	215.591	34.7141	-104.411	229.658	36.0301	-34.8494	239.135	31.777	-53.5612	247.287	23.5064	-79.5349	211.389	58.4461	-2.83072	216.214	58.2456	28.7545	180.236	66.4184	8.62582	
4	0.0333333	149.01	46.298	20.0268	131.464	35.9514	3.1299	112.929	28.0721	-21.2921	102.014	17.8015	-39.8781	165.02	57.0063	-55.5226	153.577	54.6454	-79.2663	151.576	44.7419	-103.961	191.18	56.1126	-57.683	190.183	49.323	-92.0785	187.63	37.8371	-118.373	210.066	47.7162	-48.7044	212.882	45.8579	-80.2925	215.289	34.9841	-106.141	229.925	33.9795	-32.0207	239.952	31.7906	-57.8088	246.726	22.6171	-79.1988	211.165	56.7779	0.370475	218.631	59.0969	28.6056	184.818	64.9016	12.3934	
5	0.0416667	148.819	45.0714	18.3274	132.96	34.5601	1.2911	115.277	26.3801	-18.5646	103.55	17.3006	-37.9462	161.947	56.4725	-54.0113	157.261	52.8527	-82.4193	145.299	45.345	-106.45	193.342	55.2895	-58.108	192.825	50.8785	-88.816	187.435	40.0556	-117.065	209.122	48.6926	-52.1536	216.24	46.5606	-76.7114	214.093	37.7246	-102.044	231.514	34.2198	-34.8833	237.692	32.5272	-54.0169	249.683	24.3788	-79.5042	214.522	54.4915	-2.37699	214.936	57.7548	25.718	183.84	64.5536	8.25443	
6	0.05	149.606	44.6219	18.1749	128.15	35.6953	1.51419	109.845	26.7174	-22.8149	100.22	15.9467	-39.4942	162.439	58.1561	-55.1335	151.486	55.0869	-82.7408	150.349	45.9161	-106.468	190.064	58.9983	-59.4309	189.97	54.7623	-88.9233	187.977	44.801	-119.372	212.87	50.8057	-51.624	217.455	49.7954	-76.2207	218.927	43.3992	-101.824	227.301	35.9219	-32.9527	241.246	33.0234	-55.1615	250.088	28.2997	-79.0814	209.974	57.5915	0.348397	211.179	58.5568	28.0179	180.271	65.5617	8.90097	
7	0.0583333	146.959	45.5091	21.9012	127.648	35.6205	-0.519755	111.741	26.2525	-24.4925	103.09	15.8294	-45.4818	159.255	63.1148	-55.1692	152.978	55.7528	-84.7908	146.122	44.4014	-108.165	191.159	63.3595	-60.4158	189.528	61.1046	-89.6753	190.492	51.8133	-122.994	212.673	55.3076	-51.6293	218.234	56.3658	-76.2321	216.807	54.0829	-101.099	226.191	40.3562	-31.4538	236.754	40.5107	-51.9966	250.295	38.0603	-75.6582	208.352	61.736	-2.99912	210.449	60.4585	30.8301	176.67	69.0238	13.0112	
